<?xml version="1.0" standalone="no"?>
<!DOCTYPE svg PUBLIC "-//W3C//DTD SVG 20010904//EN"
 "http://www.w3.org/TR/2001/REC-SVG-20010904/DTD/svg10.dtd">
<svg version="1.0" xmlns="http://www.w3.org/2000/svg"
 width="192.000000pt" height="192.000000pt" viewBox="0 0 192.000000 192.000000"
 preserveAspectRatio="xMidYMid meet">
<metadata>
Created by potrace 1.14, written by Peter Selinger 2001-2017
</metadata>
<g transform="translate(0.000000,192.000000) scale(0.100000,-0.100000)"
fill="#000000" stroke="none">
<path d="M1198 1848 c-2 -7 -3 -44 -3 -82 l0 -70 80 -47 c227 -134 326 -327
326 -634 1 -314 -143 -542 -404 -640 -102 -38 -221 -55 -388 -55 l-149 0 0
400 0 400 -85 0 -85 0 0 -481 0 -481 288 5 c251 4 297 7 365 26 175 47 278
103 388 211 119 119 196 267 230 448 15 82 6 345 -15 431 -62 247 -200 419
-431 534 -90 44 -112 51 -117 35z"/>
<path d="M120 1065 l0 -556 83 3 82 3 3 479 2 479 228 -6 c257 -6 338 -19 449
-72 157 -74 253 -221 253 -388 l0 -48 83 3 82 3 3 41 c4 54 -20 166 -51 234
-53 119 -165 233 -291 297 -27 14 -92 37 -145 51 -92 24 -109 26 -438 30
l-343 4 0 -557z"/>
</g>
</svg>
